<svg width="375" height="86" viewBox="0 0 375 86" fill="none" xmlns="http://www.w3.org/2000/svg">
<circle cx="43" cy="43" r="43" fill="white"/>
<path d="M83.8643 29.5918C85.2479 33.8114 86 38.3177 86 43C86 66.7482 66.7482 86 43 86C26.3784 86 11.9608 76.5684 4.80371 62.7656L9.3877 55.1494C10.5573 54.676 11.3828 53.5308 11.3828 52.1914C11.3828 52.0809 11.3762 51.9719 11.3652 51.8643L17.8838 41.0381C20.8523 36.1071 28.0394 36.2199 30.8525 41.2412L34.6875 48.0869C34.2524 48.7762 34.0001 49.5924 34 50.4678C34 52.9353 36.0003 54.9364 38.4678 54.9365C38.4863 54.9365 38.505 54.9348 38.5234 54.9346L42.5098 62.0498C47.1983 70.419 59.1776 70.6055 64.125 62.3867L72.2139 48.9463C72.4713 48.98 72.7334 49 73 49C76.3137 49 79 46.3137 79 43C79 41.7028 78.5866 40.5029 77.8867 39.5215L83.8643 29.5918ZM43 0C59.859 0 74.4492 9.70361 81.4971 23.8291L73.5527 37.0264C73.3707 37.0097 73.1864 37 73 37C69.6863 37 67 39.6863 67 43C67 44.2129 67.3606 45.3413 67.9795 46.2852L59.8408 59.8086C56.8723 64.7395 49.6853 64.6275 46.8721 59.6064L42.6436 52.0576C42.8317 51.5636 42.9365 51.0278 42.9365 50.4678C42.9364 48.2821 41.3664 46.4642 39.293 46.0771L35.2148 38.7969C30.5262 30.4277 18.5469 30.2411 13.5996 38.46L7.14941 49.1738C5.89849 49.6057 5.00004 50.7937 5 52.1914C5 52.3584 5.01239 52.5225 5.03711 52.6826L2.37207 57.1113C0.836874 52.6908 0 47.9433 0 43C0 19.2518 19.2518 0 43 0Z" fill="url(#paint0_linear_1415_500)"/>
<path d="M139.652 28.3636V72H137.053L109.226 33.2003H108.97V72H106.307V28.3636H108.928L136.754 67.206H137.01V28.3636H139.652ZM162.891 72.6818C159.936 72.6818 157.365 71.9503 155.178 70.4872C152.99 69.0241 151.3 67.0213 150.107 64.4787C148.914 61.9361 148.317 59.0384 148.317 55.7855C148.317 52.5185 148.914 49.6065 150.107 47.0497C151.314 44.4929 152.969 42.4759 155.071 40.9986C157.174 39.5213 159.574 38.7827 162.273 38.7827C164.105 38.7827 165.838 39.152 167.472 39.8906C169.12 40.6151 170.568 41.6662 171.818 43.044C173.083 44.4219 174.07 46.0838 174.78 48.0298C175.505 49.9759 175.867 52.1634 175.867 54.5923V56.2116H149.958V53.8466H173.267C173.267 51.4744 172.784 49.3366 171.818 47.4332C170.853 45.5298 169.539 44.017 167.877 42.8949C166.215 41.7727 164.347 41.2116 162.273 41.2116C160.1 41.2116 158.161 41.8224 156.456 43.044C154.766 44.2514 153.424 45.8849 152.429 47.9446C151.449 50.0043 150.938 52.3054 150.895 54.848V55.9134C150.895 58.6406 151.371 61.0909 152.323 63.2642C153.289 65.4233 154.666 67.1349 156.456 68.3991C158.246 69.6491 160.391 70.2741 162.891 70.2741C164.681 70.2741 166.208 69.9759 167.472 69.3793C168.75 68.7685 169.794 68.0298 170.604 67.1634C171.414 66.2969 172.024 65.4588 172.436 64.6491L174.801 65.608C174.304 66.7017 173.53 67.7955 172.479 68.8892C171.442 69.9687 170.121 70.8707 168.516 71.5952C166.925 72.3196 165.05 72.6818 162.891 72.6818ZM204.582 60.3878V39.2727H207.181V72H204.582V66.6946H204.368C203.601 68.3849 202.359 69.7628 200.64 70.8281C198.935 71.8935 196.918 72.4261 194.589 72.4261C192.444 72.4261 190.547 71.9574 188.9 71.0199C187.252 70.0824 185.959 68.7543 185.022 67.0355C184.084 65.3026 183.616 63.2429 183.616 60.8565V39.2727H186.215V60.75C186.215 63.4773 187.039 65.6861 188.687 67.3764C190.349 69.0526 192.493 69.8906 195.121 69.8906C196.826 69.8906 198.395 69.5071 199.83 68.7401C201.265 67.973 202.415 66.8793 203.282 65.4588C204.148 64.0241 204.582 62.3338 204.582 60.3878Z" fill="white"/>
<path d="M215.067 72L222.311 28.3636H237.865C241.246 28.3636 243.952 28.946 245.983 30.1108C248.028 31.2614 249.435 32.8665 250.202 34.9261C250.983 36.9716 251.153 39.3437 250.713 42.0426C250.259 44.7131 249.3 47.0568 247.837 49.0739C246.388 51.0909 244.449 52.6676 242.02 53.804C239.605 54.9261 236.707 55.4872 233.327 55.4872H221.544L222.524 49.8196H233.71C235.855 49.8196 237.645 49.5142 239.08 48.9034C240.514 48.2926 241.636 47.4048 242.446 46.2401C243.27 45.0753 243.81 43.6761 244.065 42.0426C244.335 40.3807 244.257 38.9531 243.831 37.7599C243.405 36.5526 242.574 35.6293 241.338 34.9901C240.102 34.3366 238.405 34.0099 236.246 34.0099H227.979L221.651 72H215.067ZM239.868 52.3125L247.389 72H239.889L232.56 52.3125H239.868ZM252.203 72L257.658 39.2727H264.028L258.574 72H252.203ZM262.175 34.1591C261.067 34.1591 260.129 33.7898 259.362 33.0511C258.609 32.2983 258.261 31.4034 258.318 30.3665C258.375 29.3153 258.815 28.4205 259.639 27.6818C260.463 26.929 261.422 26.5526 262.516 26.5526C263.624 26.5526 264.554 26.929 265.307 27.6818C266.06 28.4205 266.415 29.3153 266.372 30.3665C266.315 31.4034 265.875 32.2983 265.051 33.0511C264.241 33.7898 263.283 34.1591 262.175 34.1591ZM286.676 39.2727L285.845 44.3864H267.969L268.8 39.2727H286.676ZM274.872 31.4318H281.243L276.087 62.3906C275.888 63.6264 275.923 64.5568 276.193 65.1818C276.463 65.7926 276.875 66.2116 277.429 66.4389C277.997 66.652 278.629 66.7585 279.325 66.7585C279.837 66.7585 280.284 66.723 280.667 66.652C281.051 66.581 281.356 66.5241 281.584 66.4815L281.925 71.7443C281.498 71.8864 280.923 72.0284 280.199 72.1705C279.488 72.3267 278.622 72.4119 277.599 72.4261C275.923 72.4545 274.41 72.1562 273.061 71.5312C271.712 70.892 270.703 69.9261 270.035 68.6335C269.368 67.3267 269.204 65.6861 269.545 63.7116L274.872 31.4318ZM297.36 52.5682L294.164 72H287.793L295.037 28.3636H301.323L298.638 44.5994H299.043C300.08 42.8239 301.472 41.4247 303.219 40.402C304.981 39.3651 307.14 38.8466 309.697 38.8466C311.941 38.8466 313.823 39.3082 315.343 40.2315C316.877 41.1548 317.956 42.5327 318.581 44.3651C319.221 46.1832 319.32 48.456 318.88 51.1832L315.385 72H309.015L312.339 51.9503C312.736 49.5497 312.424 47.6889 311.401 46.3679C310.378 45.0327 308.78 44.3651 306.607 44.3651C305.087 44.3651 303.681 44.6847 302.388 45.3239C301.11 45.9631 300.03 46.9006 299.15 48.1364C298.269 49.358 297.672 50.8352 297.36 52.5682ZM322.687 72L328.141 39.2727H334.256L333.362 44.5994H333.766C334.761 42.7955 336.11 41.3892 337.815 40.3807C339.533 39.358 341.479 38.8466 343.653 38.8466C345.812 38.8466 347.552 39.358 348.873 40.3807C350.208 41.4034 351.082 42.8097 351.494 44.5994H351.835C352.886 42.8381 354.356 41.4389 356.245 40.402C358.134 39.3651 360.258 38.8466 362.616 38.8466C365.556 38.8466 367.815 39.7841 369.391 41.6591C370.982 43.5199 371.465 46.3182 370.84 50.054L367.175 72H360.783L364.363 50.6506C364.718 48.4205 364.377 46.8153 363.34 45.8352C362.303 44.8409 360.947 44.3438 359.271 44.3438C357.197 44.3438 355.478 44.983 354.114 46.2614C352.751 47.5256 351.913 49.152 351.6 51.1406L348.085 72H341.756L345.4 50.2457C345.684 48.456 345.357 47.0284 344.42 45.9631C343.497 44.8835 342.147 44.3438 340.372 44.3438C339.164 44.3438 337.992 44.6634 336.856 45.3026C335.734 45.9418 334.775 46.8224 333.979 47.9446C333.184 49.0668 332.666 50.3594 332.424 51.8224L329.058 72H322.687Z" fill="white"/>
<defs>
<linearGradient id="paint0_linear_1415_500" x1="14" y1="76.5" x2="81.5" y2="24.5" gradientUnits="userSpaceOnUse">
<stop stop-color="#7D74F9"/>
<stop offset="0.160192" stop-color="#675FCC"/>
<stop offset="1" stop-color="#121127"/>
</linearGradient>
</defs>
</svg>
